<svg width="34" height="76" viewBox="0 0 34 76" fill="none" xmlns="http://www.w3.org/2000/svg">
<g filter="url(#filter0_d_378_527)">
<path d="M28.2533 0.960826C28.8646 0.274614 30 0.706991 30 1.62598V37.4711C30 37.7052 29.9179 37.9319 29.7679 38.1117L5.76788 66.8808C5.16891 67.5988 4 67.1753 4 66.2402V28.5681C4 28.3228 4.09015 28.0861 4.2533 27.9029L28.2533 0.960826Z" fill="#215FFF"/>
<path d="M29.5 1.62598V37.4711C29.5 37.5882 29.4589 37.7015 29.3839 37.7914L5.38394 66.5605C5.08445 66.9195 4.5 66.7077 4.5 66.2402V28.5681C4.5 28.4454 4.54507 28.3271 4.62665 28.2355L28.6266 1.29341C28.9323 0.950297 29.5 1.16649 29.5 1.62598Z" stroke="black"/>
</g>
<defs>
<filter id="filter0_d_378_527" x="0" y="0.623978" width="34" height="74.6182" filterUnits="userSpaceOnUse" color-interpolation-filters="sRGB">
<feFlood flood-opacity="0" result="BackgroundImageFix"/>
<feColorMatrix in="SourceAlpha" type="matrix" values="0 0 0 0 0 0 0 0 0 0 0 0 0 0 0 0 0 0 127 0" result="hardAlpha"/>
<feOffset dy="4"/>
<feGaussianBlur stdDeviation="2"/>
<feComposite in2="hardAlpha" operator="out"/>
<feColorMatrix type="matrix" values="0 0 0 0 0 0 0 0 0 0 0 0 0 0 0 0 0 0 0.25 0"/>
<feBlend mode="normal" in2="BackgroundImageFix" result="effect1_dropShadow_378_527"/>
<feBlend mode="normal" in="SourceGraphic" in2="effect1_dropShadow_378_527" result="shape"/>
</filter>
</defs>
</svg>
